<svg width="11" height="10" viewBox="0 0 11 10" fill="none" xmlns="http://www.w3.org/2000/svg">
<g clip-path="url(#clip0_1_214)">
<path d="M10.863 3.83592C10.7975 3.63343 10.6179 3.48962 10.4054 3.47046L7.51915 3.20839L6.37784 0.537041C6.29369 0.341266 6.10203 0.214539 5.88909 0.214539C5.67615 0.214539 5.48449 0.341266 5.40034 0.537499L4.25903 3.20839L1.3723 3.47046C1.16019 3.49007 0.98105 3.63343 0.915206 3.83592C0.849363 4.03841 0.910171 4.26051 1.07062 4.40051L3.2523 6.31386L2.60898 9.14772C2.5619 9.35608 2.64277 9.57146 2.81566 9.69644C2.90859 9.76358 3.01731 9.79776 3.12695 9.79776C3.22148 9.79776 3.31525 9.77228 3.3994 9.72192L5.88909 8.23392L8.37786 9.72192C8.55998 9.83148 8.78955 9.82149 8.96206 9.69644C9.13502 9.57108 9.21582 9.35562 9.16874 9.14772L8.52542 6.31386L10.7071 4.40089C10.8675 4.26051 10.9288 4.03879 10.863 3.83592V3.83592Z" fill="#EDEDED"/>
</g>
<defs>
<clipPath id="clip0_1_214">
<rect width="10" height="10" fill="white" transform="translate(0.888916)"/>
</clipPath>
</defs>
</svg>
